HIERARCHY
ROOT root
{
	OFFSET 0.000000 0.000000 0.000000
	CHANNELS 6 Xposition Yposition Zposition Zrotation Yrotation Xrotation
	JOINT lhip
	{
		OFFSET 0.058581 -0.082280 -0.017664
		CHANNELS 3 Zrotation Yrotation Xrotation
		JOINT lknee
		{
			OFFSET 0.043451 -0.386469 0.008037
			CHANNELS 3 Zrotation Yrotation Xrotation
			JOINT lankle
			{
				OFFSET -0.014790 -0.426874 -0.037428
				CHANNELS 3 Zrotation Yrotation Xrotation
				JOINT ltoe
				{
					OFFSET 0.041054 -0.060286 0.122042
					CHANNELS 3 Zrotation Yrotation Xrotation
					End Site
					{
						OFFSET 0.000000 0.000000 0.000000
					}
				}
			}
		}
	}
	JOINT rhip
	{
		OFFSET -0.060310 -0.090513 -0.013543
		CHANNELS 3 Zrotation Yrotation Xrotation
		JOINT rknee
		{
			OFFSET -0.043257 -0.383688 -0.004843
			CHANNELS 3 Zrotation Yrotation Xrotation
			JOINT rankle
			{
				OFFSET 0.019056 -0.420046 -0.034562
				CHANNELS 3 Zrotation Yrotation Xrotation
				JOINT rtoe
				{
					OFFSET -0.034840 -0.062106 0.130323
					CHANNELS 3 Zrotation Yrotation Xrotation
					End Site
					{
						OFFSET 0.000000 0.000000 0.000000
					}
				}
			}
		}
	}
	JOINT lowerback
	{
		OFFSET 0.004439 0.124404 -0.038385
		CHANNELS 3 Zrotation Yrotation Xrotation
		JOINT upperback
		{
			OFFSET 0.004488 0.137956 0.026820
			CHANNELS 3 Zrotation Yrotation Xrotation
			JOINT chest
			{
				OFFSET -0.002265 0.056032 0.002855
				CHANNELS 3 Zrotation Yrotation Xrotation
				JOINT lowerneck
				{
					OFFSET -0.013390 0.211636 -0.033468
					CHANNELS 3 Zrotation Yrotation Xrotation
					JOINT upperneck
					{
						OFFSET 0.010113 0.088937 0.050410
						CHANNELS 3 Zrotation Yrotation Xrotation
						End Site
						{
							OFFSET 0.000000 0.000000 0.000000
						}
					}
				}
				JOINT lclavicle
				{
					OFFSET 0.071702 0.114000 -0.018898
					CHANNELS 3 Zrotation Yrotation Xrotation
					JOINT lshoulder
					{
						OFFSET 0.122921 0.045205 -0.019046
						CHANNELS 3 Zrotation Yrotation Xrotation
						JOINT lelbow
						{
							OFFSET 0.255332 -0.015649 -0.022946
							CHANNELS 3 Zrotation Yrotation Xrotation
							JOINT lwrist
							{
								OFFSET 0.265709 0.012698 -0.007375
								CHANNELS 3 Zrotation Yrotation Xrotation
								End Site
								{
									OFFSET 0.000000 0.000000 0.000000
								}
							}
						}
					}
				}
				JOINT rclavicle
				{
					OFFSET -0.082954 0.112472 -0.023707
					CHANNELS 3 Zrotation Yrotation Xrotation
					JOINT rshoulder
					{
						OFFSET -0.113228 0.046853 -0.008472
						CHANNELS 3 Zrotation Yrotation Xrotation
						JOINT relbow
						{
							OFFSET -0.260127 -0.014369 -0.031269
							CHANNELS 3 Zrotation Yrotation Xrotation
							JOINT rwrist
							{
								OFFSET -0.269108 0.006794 -0.006027
								CHANNELS 3 Zrotation Yrotation Xrotation
								End Site
								{
									OFFSET 0.000000 0.000000 0.000000
								}
							}
						}
					}
				}
			}
		}
	}
}
MOTION
Frames: 10
Frame Time: 0.033333
0.377711 0.167122 1.019620 85.018320 1.009125 90.523663 7.947713 6.012022 5.160441 -4.055399 -0.076972 -1.590800 0.171390 9.480156 -5.350632 0.000000 -0.000000 0.000000 -5.944297 -3.267046 0.314866 1.105739 0.248297 3.457074 5.516292 -4.345491 -7.125892 0.000000 -0.000000 0.000000 -4.654073 3.018391 -6.724494 2.802322 -1.980575 7.900872 -0.084356 0.359339 -3.015220 3.546760 5.622668 9.945960 3.099586 0.474162 -3.774364 -24.040964 1.210634 -3.527414 -56.372094 -4.728459 20.065715 0.758894 -20.278743 11.327906 -11.222510 -10.513798 11.126366 25.875944 -0.885673 1.773497 57.713887 2.539448 12.631639 -9.868932 24.837641 -1.880873 9.169770 7.420122 2.129057 
0.378298 0.166898 1.019350 85.103943 1.016572 90.528101 7.918379 5.890960 5.147061 -3.989941 -0.102534 -1.533452 0.168485 9.524928 -5.399426 0.000000 -0.000000 0.000000 -5.942081 -3.192933 0.412336 1.140721 0.283726 3.390434 5.439022 -4.535083 -7.126384 0.000000 -0.000000 0.000000 -4.587891 2.914340 -6.633881 2.690277 -1.897762 7.490631 -0.004341 0.361459 -2.686637 3.561055 5.621491 9.533493 2.974350 0.447799 -3.331668 -23.853221 1.286274 -3.512807 -56.662436 -4.742497 19.781829 0.745741 -20.324274 11.531819 -11.544116 -10.498878 10.767594 25.662014 -1.131846 1.880594 58.119259 2.729850 12.764343 -10.100839 24.840646 -1.702778 9.270127 7.396402 1.822080 
0.378851 0.166674 1.019170 85.101077 1.011344 90.553257 7.920222 5.861850 5.184738 -3.999898 -0.107948 -1.577007 0.182343 9.512642 -5.409089 0.000000 -0.000000 0.000000 -5.947530 -3.193490 0.418225 1.150816 0.319343 3.387637 5.430818 -4.552489 -7.160703 0.000000 -0.000000 0.000000 -4.604210 2.912041 -6.701203 2.693955 -1.889272 7.372451 0.001420 0.261125 -2.527423 3.616935 5.718416 9.400324 2.890915 0.552775 -3.208150 -23.859450 1.552606 -3.606457 -56.762604 -4.737169 19.734223 0.711913 -20.300211 11.816040 -11.510973 -10.522771 10.695645 25.815846 -1.626345 1.628737 58.114606 2.931990 12.756836 -10.005715 24.891238 -1.214758 9.362914 7.230257 1.984629 
0.379696 0.166428 1.019101 85.085996 1.015671 90.566869 7.912094 5.827887 5.239044 -3.987172 -0.089096 -1.593514 0.159733 9.532600 -5.458261 0.000000 -0.000000 0.000000 -5.961007 -3.146125 0.444433 1.191912 0.278350 3.397851 5.423420 -4.538187 -7.199671 0.000000 -0.000000 0.000000 -4.577579 2.907078 -6.822724 2.634393 -1.838240 7.568854 -0.032823 0.345159 -2.683679 3.724177 5.773669 9.274950 2.921677 0.406911 -3.093084 -23.784963 1.523685 -3.445585 -56.944439 -4.593476 19.707027 0.829602 -20.244063 11.683641 -11.667518 -10.670580 10.723214 25.761208 -1.380280 1.912615 58.413373 2.696233 12.772797 -10.187227 24.804263 -1.521726 9.244670 7.394428 1.769095 
0.379899 0.166390 1.019081 85.078783 1.022973 90.580911 7.913165 5.826240 5.240793 -3.979969 -0.072291 -1.590754 0.148413 9.549913 -5.474314 0.000000 -0.000000 0.000000 -5.952009 -3.135583 0.443598 1.187476 0.265788 3.399048 5.413276 -4.540544 -7.201763 0.000000 -0.000000 0.000000 -4.572093 2.903486 -6.859181 2.614681 -1.829275 7.615840 -0.037558 0.355483 -2.728427 3.773963 5.795098 9.263819 2.920623 0.352699 -3.069783 -23.743512 1.534211 -3.406366 -57.027574 -4.524563 19.711732 0.843129 -20.216394 11.611858 -11.651031 -10.692473 10.709466 25.697948 -1.252350 2.011032 58.565815 2.590815 12.825017 -10.267674 24.770009 -1.721709 9.124470 7.464169 1.674488 
0.380273 0.166356 1.019023 85.084431 1.046601 90.589330 7.950898 5.836558 5.265109 -3.996363 -0.092634 -1.600963 0.143677 9.558179 -5.464614 0.000000 -0.000000 0.000000 -5.918667 -3.110995 0.434096 1.171865 0.239095 3.451397 5.422228 -4.545658 -7.224530 0.000000 -0.000000 0.000000 -4.539736 2.886821 -6.831344 2.590113 -1.820432 7.538872 -0.046175 0.334055 -2.696963 3.820432 5.832433 9.196039 2.905807 0.325481 -2.995951 -23.729841 1.666549 -3.370958 -57.078269 -4.401482 19.696273 0.827863 -20.254153 11.788232 -11.729158 -10.701990 10.761782 25.679466 -1.329416 2.001937 58.679271 2.514832 12.910028 -10.242005 24.769429 -1.601698 9.186399 7.551890 1.606767 
0.380524 0.166290 1.018917 85.087423 1.045490 90.602603 7.960276 5.832958 5.284010 -4.016938 -0.082431 -1.632312 0.143278 9.573953 -5.466949 0.000000 -0.000000 0.000000 -5.923959 -3.082900 0.397350 1.186786 0.229621 3.520960 5.408867 -4.553805 -7.286534 0.000000 -0.000000 0.000000 -4.563441 2.892601 -6.913490 2.598961 -1.793996 7.647698 -0.063190 0.291964 -2.695528 3.905757 5.924612 9.148606 2.906086 0.193311 -2.920039 -23.718211 1.695863 -3.299680 -57.139854 -4.354134 19.695044 0.868659 -20.215873 11.801280 -11.789437 -10.708396 10.774567 25.697918 -1.341316 2.034185 58.758670 2.526601 12.926555 -10.245219 24.729441 -1.565703 9.157774 7.491996 1.548386 
0.380868 0.166272 1.018820 85.096157 1.037938 90.592387 7.954879 5.853241 5.296721 -4.018586 -0.115011 -1.596217 0.186537 9.541768 -5.507830 0.000000 -0.000000 0.000000 -5.946832 -3.100605 0.437326 1.203390 0.272787 3.517819 5.386714 -4.542950 -7.290374 0.000000 -0.000000 0.000000 -4.593256 2.900962 -6.971768 2.605101 -1.814703 7.799786 -0.076509 0.298739 -2.736869 3.929860 5.924277 9.083629 2.882548 0.137229 -2.903611 -23.694361 1.722199 -3.281477 -57.217701 -4.293785 19.754432 0.858623 -20.123379 11.977399 -11.689543 -10.729371 10.977062 25.688444 -1.348759 2.025230 58.827170 2.476264 12.923617 -10.232472 24.702620 -1.534085 9.103193 7.527543 1.518866 
0.381079 0.166169 1.018720 85.120767 1.040521 90.599967 7.968636 5.898229 5.267673 -4.017737 -0.131864 -1.544211 0.117423 9.521207 -5.500885 0.000000 -0.000000 0.000000 -5.948624 -3.115826 0.445596 1.225591 0.280547 3.504865 5.390576 -4.567638 -7.293634 0.000000 -0.000000 0.000000 -4.626466 2.890568 -7.002043 2.593236 -1.827494 7.855094 -0.080697 0.305255 -2.701980 3.950838 5.957890 9.074500 2.910930 0.101040 -2.970182 -23.658760 1.751849 -3.282498 -57.267193 -4.269651 19.748664 0.833971 -20.027215 12.047107 -11.589339 -10.745462 11.050904 25.719280 -1.369435 2.014220 58.854322 2.471705 12.914811 -10.180181 24.684121 -1.481030 9.038502 7.475789 1.569709 
0.381296 0.166051 1.018686 85.094081 1.053744 90.586914 7.985276 5.916899 5.305505 -4.006522 -0.158957 -1.545023 0.087692 9.533404 -5.517437 0.000000 -0.000000 0.000000 -5.933490 -3.082743 0.469812 1.231493 0.283745 3.497914 5.369834 -4.571048 -7.302371 0.000000 -0.000000 0.000000 -4.627391 2.899053 -6.951848 2.588146 -1.789310 7.868013 -0.077393 0.286384 -2.710175 3.949598 5.974370 9.033607 2.863483 0.153675 -3.011265 -23.649930 1.759771 -3.264142 -57.293643 -4.198807 19.731682 0.871869 -20.013114 12.046370 -11.558291 -10.728484 10.988261 25.710082 -1.413947 2.048088 58.908346 2.485974 12.901755 -10.213106 24.708724 -1.434612 9.061044 7.454343 1.542035 
